# xmcd
#
# Track frame offsets:
#	150
#	23346
#	41114
#	58692
#	84074
#	101282
#	120813
#	144754
#	161553
#
# Disc length: 2452 seconds
# Revision: 0
# Processed by: cddbd v1.5.2PL0 Copyright (c) Steve Scherf et al.
# Submitted via: dBpowerAMP V12.0
#
DISCID=57099209
DTITLE=Emma Donovan and the Putbacks - Dawn
DYEAR=2014
DGENRE=R&B
TTITLE0=Black Woman
TTITLE1=My Goodness
TTITLE2=Dawn
TTITLE3=Mother
TTITLE4=Daddy
TTITLE5=Keep Me In Your Reach
TTITLE6=Come Back To Me
TTITLE7=Voodoo
TTITLE8=Over Under Away
EXTD=
EXTT0=
EXTT1=
EXTT2=
EXTT3=
EXTT4=
EXTT5=
EXTT6=
EXTT7=
EXTT8=
PLAYORDER=
